<svg xmlns="http://www.w3.org/2000/svg" viewBox="0 0 2800 768" preserveAspectRatio="xMidYMax meet"><path d="M2730.75,626.53c-3.25-.47-8.57-.49-8.57-.49-50.38,0-93.06,32.94-107.7,78.45-8.09-7.06-18.67-11.34-30.25-11.34-18.52,0-34.48,10.94-41.77,26.71-19.09-12.26-41.81-19.38-66.19-19.38-20.81,0-40.42,5.19-57.59,14.34-19.62-35.71-57.59-59.92-101.22-59.92s-81.56,24.18-101.19,59.87c-8.13-12.98-22.56-21.62-39.02-21.62-6.16,0-12.04,1.21-17.4,3.41-1.5-42.29-36.25-76.11-78.91-76.11-33.58,0-62.25,20.96-73.67,50.5-6.14-1.53-12.57-2.35-19.18-2.35-23.34,0-44.31,10.12-58.76,26.22-8.13-7.22-18.82-11.61-30.55-11.61-19.32,0-35.85,11.91-42.67,28.78-16.86-9.64-36.39-15.15-57.21-15.15-19.45,0-37.77,4.81-53.85,13.3-13.34-24.73-39.48-41.54-69.54-41.54-6.62,0-13.04.81-19.18,2.35-11.42-29.55-40.1-50.5-73.67-50.5-42.65,0-77.41,33.82-78.91,76.11-5.37-2.2-11.24-3.41-17.4-3.41-8.73,0-16.89,2.43-23.84,6.65-14.95-40.29-52.2-69.73-96.76-73.37-4.25-.57-8.57-.39-8.57-.39-50.38,0-93.06,32.94-107.7,78.45-8.09-7.06-18.67-11.34-30.25-11.34-18.52,0-34.48,10.94-41.77,26.71-19.09-12.26-41.81-19.38-66.19-19.38-20.81,0-40.42,5.19-57.59,14.34-19.62-35.71-57.59-59.92-101.22-59.92s-81.56,24.18-101.19,59.87c-8.13-12.98-22.56-21.62-39.02-21.62-6.16,0-12.04,1.21-17.4,3.41-1.5-42.29-36.25-76.11-78.91-76.11-33.58,0-62.25,20.96-73.67,50.5-6.14-1.53-12.57-2.35-19.18-2.35-23.34,0-44.31,10.12-58.76,26.22-8.13-7.22-18.82-11.61-30.55-11.61-19.32,0-35.85,11.91-42.67,28.78-16.86-9.64-36.39-15.15-57.21-15.15-19.45,0-37.77,4.81-53.85,13.3-13.34-24.73-39.48-41.54-69.54-41.54-6.62,0-13.04.81-19.18,2.35-11.42-29.55-40.1-50.5-73.67-50.5-42.65,0-77.41,33.82-78.91,76.11-5.37-2.2-11.24-3.41-17.4-3.41-8.73,0-16.89,2.43-23.84,6.65-15.04-40.52-52.62-70.08-97.51-73.44v146.08h2803v-101.23c-17.16-23.18-42.79-39.89-72.25-44.68Z" fill="#ffffff"/></svg>