<?xml version="1.0" encoding="UTF-8"?>
<svg id="Layer_1" data-name="Layer 1" xmlns="http://www.w3.org/2000/svg" xmlns:xlink="http://www.w3.org/1999/xlink" viewBox="0 0 2800 768">
  <defs>
    <style>
      .cls-1 {
        fill: url(#linear-gradient);
      }

      .cls-2 {
        fill: #fff;
      }

      .cls-3 {
        fill: #f2da9e;
      }

      .cls-4 {
        fill: #d7edf4;
      }
    </style>
    <linearGradient id="linear-gradient" x1="1401.5" y1="749.2" x2="1401.5" y2="0" gradientUnits="userSpaceOnUse">
      <stop offset=".04" stop-color="#f7ca89"/>
      <stop offset=".18" stop-color="#e4d1ab"/>
      <stop offset=".38" stop-color="#cddcd7"/>
      <stop offset=".49" stop-color="#c5e0e8"/>
      <stop offset=".8" stop-color="#a1bcd1"/>
    </linearGradient>
  </defs>
  <rect class="cls-1" width="2803" height="749.2"/>
  <path class="cls-3" d="M2803,772.44v-235.48c-15.76-17.73-38.76-28.87-64.38-28.98-5.38-.02-12.62,1.21-12.62,1.21-32.23,5.42-58.38,28.75-67.85,59.42-1.77,5.72-7.17,9.59-13.14,9.11-2.62-.21-5.27-.32-7.94-.32-19.03,0-36.79,5.45-51.81,14.87-4.14,2.6-9.44,2.7-13.57.08-6.81-4.32-14.89-6.83-23.56-6.83-2.33,0-4.61.18-6.84.53-5.23.82-10.33-1.85-12.97-6.45-14.51-25.24-41.74-42.24-72.95-42.24s-60.13,18.07-74.27,44.62c-1.88,3.54-5.27,5.97-9.21,6.69-11.23,2.06-21.04,8.19-27.83,16.81-3.72,4.72-10.34,6.09-15.68,3.34-16.82-8.67-35.9-13.57-56.12-13.57-16.9,0-33,3.42-47.64,9.6-5.63,2.38-12.18.54-15.61-4.52-20.76-30.57-55.81-50.66-95.55-50.66s-71.58,18.29-92.62,46.54c-4.32,5.79-12.68,6.91-18.23,2.29-7.97-6.61-18.2-10.58-29.36-10.58-.6,0-1.2.01-1.8.03-4.76.19-9.33-2.08-11.75-6.18-17.04-28.76-48.38-48.04-84.22-48.04-26.28,0-50.14,10.36-67.72,27.23-2.94,2.82-7.01,4.07-11.04,3.42-4.11-.66-8.33-1.01-12.63-1.01-19.79,0-37.88,7.28-51.74,19.31-4.13,3.59-10.07,4.02-14.82,1.31-6.71-3.83-14.48-6.01-22.75-6.01-15.49,0-29.18,7.65-37.52,19.38-3.51,4.94-10.03,6.58-15.58,4.12-14.3-6.35-30.13-9.88-46.78-9.88-15.59,0-30.47,3.09-44.04,8.7-5.52,2.28-11.88.57-15.39-4.27-14.35-19.79-37.65-32.66-63.97-32.66-2.71,0-5.38.14-8.02.4-4.85.49-9.53-1.81-12.14-5.93-15.95-25.23-34.87-40.87-47.81-44.97-12.91-4.09-28.55-4.87-28.55-4.87-3.31-.16-6.15-.17-8.33-.13-.61.01-1.21.06-1.81.16-8.05,1.29-28.51,5.79-46.55,23.38-12.86,12.54-19.11,26.48-22.17,36.34-1.76,5.68-7.26,9.43-13.18,8.95-2.6-.21-5.23-.31-7.89-.31-19.03,0-36.79,5.45-51.81,14.87-4.14,2.6-9.44,2.7-13.57.08-6.81-4.32-14.89-6.83-23.56-6.83-2.33,0-4.61.18-6.84.53-5.23.82-10.33-1.85-12.97-6.45-14.51-25.24-41.74-42.24-72.95-42.24s-60.13,18.07-74.27,44.62c-1.88,3.54-5.27,5.97-9.21,6.69-11.23,2.06-21.04,8.19-27.83,16.81-3.72,4.72-10.34,6.09-15.68,3.34-16.82-8.67-35.9-13.57-56.12-13.57-16.9,0-33,3.42-47.64,9.6-5.63,2.38-12.18.54-15.61-4.52-20.76-30.57-55.81-50.66-95.55-50.66s-71.58,18.29-92.62,46.54c-4.32,5.79-12.68,6.91-18.23,2.29-7.97-6.61-18.2-10.58-29.36-10.58-.6,0-1.2.01-1.8.03-4.76.19-9.33-2.08-11.75-6.18-17.04-28.76-48.38-48.04-84.22-48.04-26.28,0-50.14,10.36-67.72,27.23-2.94,2.82-7.01,4.07-11.04,3.42-4.11-.66-8.33-1.01-12.63-1.01-19.79,0-37.88,7.28-51.74,19.31-4.13,3.59-10.07,4.02-14.82,1.31-6.71-3.83-14.48-6.01-22.75-6.01-15.49,0-29.18,7.65-37.52,19.38-3.51,4.94-10.03,6.58-15.58,4.12-14.3-6.35-30.13-9.88-46.78-9.88-15.59,0-30.47,3.09-44.04,8.7-5.52,2.28-11.88.57-15.38-4.27-14.35-19.79-37.65-32.66-63.97-32.66-2.33,0-4.64.1-6.92.3-5.23.46-10.23-2.43-12.52-7.16-13.94-28.73-43.38-48.53-77.46-48.53h-.13c-6.93.01-12.49,5.75-12.49,12.68v252.78h2803Z"/>
  <path class="cls-4" d="M2803,772.44v-187.32c-9.72-4.32-20.47-6.73-31.79-6.73-7.76,0-15.26,1.13-22.34,3.24,0,0-12.36,3.82-18.11,7.1-13.47,8.63-24.13,21.27-30.29,36.24-10.32-4.67-21.78-7.27-33.84-7.27-36.17,0-66.89,23.36-77.89,55.82-10.16-10.58-24.44-17.17-40.27-17.17-4.19,0-8.27.47-12.2,1.34-12.59-38.56-48.85-66.41-91.61-66.41-29.84,0-56.51,13.56-74.18,34.86-7.06-1.93-14.5-2.96-22.17-2.96-16.61,0-32.09,4.82-45.12,13.13-6.74-2.89-14.16-4.49-21.95-4.49-3.33,0-6.58.29-9.75.85-14.86-29.18-45.19-49.17-80.19-49.17-37.76,0-70.08,23.27-83.41,56.25-5.31-1.2-10.83-1.84-16.5-1.84-18.09,0-34.66,6.47-47.54,17.22-15.08-18.39-37.97-30.12-63.61-30.12-31.64,0-59.1,17.87-72.85,44.06-5.97-2.18-12.41-3.37-19.13-3.37-5.84,0-11.46.9-16.75,2.56-11.4-21.67-34.13-36.44-60.31-36.44-2.79,0-5.53.17-8.23.49-7.26-43.5-45.07-76.65-90.63-76.65-35.26,0-65.88,19.86-81.29,49.01-3.46-.49-7-.75-10.6-.75-22.49,0-42.65,10-56.26,25.8-11.4-5.92-24.36-9.27-38.09-9.27-16.01,0-30.96,4.55-43.63,12.43-9.47-32.62-39.58-56.47-75.26-56.47-7.94,0-15.6,1.18-22.82,3.37,0,0-10.39,2.69-19.39,9.46-13.11,8.62-23.49,21.05-29.53,35.73-10.32-4.67-21.78-7.27-33.84-7.27-36.17,0-66.89,23.36-77.89,55.82-10.16-10.58-24.44-17.17-40.27-17.17-4.19,0-8.27.47-12.2,1.34-12.59-38.56-48.85-66.41-91.61-66.41-29.84,0-56.51,13.56-74.18,34.86-7.06-1.93-14.5-2.96-22.17-2.96-16.61,0-32.09,4.82-45.12,13.13-6.74-2.89-14.16-4.49-21.95-4.49-3.33,0-6.58.29-9.75.85-14.86-29.18-45.19-49.17-80.19-49.17-37.76,0-70.08,23.27-83.41,56.25-5.31-1.2-10.83-1.84-16.5-1.84-18.09,0-34.66,6.47-47.54,17.22-15.08-18.39-37.97-30.12-63.61-30.12-31.64,0-59.1,17.87-72.85,44.06-5.97-2.18-12.41-3.37-19.13-3.37-5.84,0-11.46.9-16.75,2.56-11.4-21.67-34.13-36.44-60.31-36.44-2.79,0-5.53.17-8.23.49-7.26-43.5-45.07-76.65-90.63-76.65-35.26,0-65.88,19.86-81.29,49.01-3.46-.49-7-.75-10.6-.75-22.49,0-42.65,10-56.26,25.8-11.4-5.92-24.36-9.27-38.09-9.27-16.01,0-30.96,4.55-43.63,12.43-9.47-32.62-39.58-56.47-75.26-56.47-15.54,0-30.03,4.52-42.21,12.33v183.72h2803Z"/>
  <path class="cls-2" d="M2730.75,626.53c-3.25-.47-8.57-.49-8.57-.49-50.38,0-93.06,32.94-107.7,78.45-8.09-7.06-18.67-11.34-30.25-11.34-18.52,0-34.48,10.94-41.77,26.71-19.09-12.26-41.81-19.38-66.19-19.38-20.81,0-40.42,5.19-57.59,14.34-19.62-35.71-57.59-59.92-101.22-59.92s-81.56,24.18-101.19,59.87c-8.13-12.98-22.56-21.62-39.02-21.62-6.16,0-12.04,1.21-17.4,3.41-1.5-42.29-36.25-76.11-78.91-76.11-33.58,0-62.25,20.96-73.67,50.5-6.14-1.53-12.57-2.35-19.18-2.35-23.34,0-44.31,10.12-58.76,26.22-8.13-7.22-18.82-11.61-30.55-11.61-19.32,0-35.85,11.91-42.67,28.78-16.86-9.64-36.39-15.15-57.21-15.15-19.45,0-37.77,4.81-53.85,13.3-13.34-24.73-39.48-41.54-69.54-41.54-6.62,0-13.04.81-19.18,2.35-11.42-29.55-40.1-50.5-73.67-50.5-42.65,0-77.41,33.82-78.91,76.11-5.37-2.2-11.24-3.41-17.4-3.41-8.73,0-16.89,2.43-23.84,6.65-14.95-40.29-52.2-69.73-96.76-73.37-4.25-.57-8.57-.39-8.57-.39-50.38,0-93.06,32.94-107.7,78.45-8.09-7.06-18.67-11.34-30.25-11.34-18.52,0-34.48,10.94-41.77,26.71-19.09-12.26-41.81-19.38-66.19-19.38-20.81,0-40.42,5.19-57.59,14.34-19.62-35.71-57.59-59.92-101.22-59.92s-81.56,24.18-101.19,59.87c-8.13-12.98-22.56-21.62-39.02-21.62-6.16,0-12.04,1.21-17.4,3.41-1.5-42.29-36.25-76.11-78.91-76.11-33.58,0-62.25,20.96-73.67,50.5-6.14-1.53-12.57-2.35-19.18-2.35-23.34,0-44.31,10.12-58.76,26.22-8.13-7.22-18.82-11.61-30.55-11.61-19.32,0-35.85,11.91-42.67,28.78-16.86-9.64-36.39-15.15-57.21-15.15-19.45,0-37.77,4.81-53.85,13.3-13.34-24.73-39.48-41.54-69.54-41.54-6.62,0-13.04.81-19.18,2.35-11.42-29.55-40.1-50.5-73.67-50.5-42.65,0-77.41,33.82-78.91,76.11-5.37-2.2-11.24-3.41-17.4-3.41-8.73,0-16.89,2.43-23.84,6.65-15.04-40.52-52.62-70.08-97.51-73.44v146.08h2803v-101.23c-17.16-23.18-42.79-39.89-72.25-44.68Z"/>
</svg>