<svg xmlns="http://www.w3.org/2000/svg" viewBox="0 0 2800 768" preserveAspectRatio="xMidYMax meet"><path d="M2803,772.44v-235.48c-15.76-17.73-38.76-28.87-64.38-28.98-5.38-.02-12.62,1.21-12.62,1.21-32.23,5.42-58.38,28.75-67.85,59.42-1.77,5.72-7.17,9.59-13.14,9.11-2.62-.21-5.27-.32-7.94-.32-19.03,0-36.79,5.45-51.81,14.87-4.14,2.6-9.44,2.7-13.57.08-6.81-4.32-14.89-6.83-23.56-6.83-2.33,0-4.61.18-6.84.53-5.23.82-10.33-1.85-12.97-6.45-14.51-25.24-41.74-42.24-72.95-42.24s-60.13,18.07-74.27,44.62c-1.88,3.54-5.27,5.97-9.21,6.69-11.23,2.06-21.04,8.19-27.83,16.81-3.72,4.72-10.34,6.09-15.68,3.34-16.82-8.67-35.9-13.57-56.12-13.57-16.9,0-33,3.42-47.64,9.6-5.63,2.38-12.18.54-15.61-4.52-20.76-30.57-55.81-50.66-95.55-50.66s-71.58,18.29-92.62,46.54c-4.32,5.79-12.68,6.91-18.23,2.29-7.97-6.61-18.2-10.58-29.36-10.58-.6,0-1.2.01-1.8.03-4.76.19-9.33-2.08-11.75-6.18-17.04-28.76-48.38-48.04-84.22-48.04-26.28,0-50.14,10.36-67.72,27.23-2.94,2.82-7.01,4.07-11.04,3.42-4.11-.66-8.33-1.01-12.63-1.01-19.79,0-37.88,7.28-51.74,19.31-4.13,3.59-10.07,4.02-14.82,1.31-6.71-3.83-14.48-6.01-22.75-6.01-15.49,0-29.18,7.65-37.52,19.38-3.51,4.94-10.03,6.58-15.58,4.12-14.3-6.35-30.13-9.88-46.78-9.88-15.59,0-30.47,3.09-44.04,8.7-5.52,2.28-11.88.57-15.39-4.27-14.35-19.79-37.65-32.66-63.97-32.66-2.71,0-5.38.14-8.02.4-4.85.49-9.53-1.81-12.14-5.93-15.95-25.23-34.87-40.87-47.81-44.97-12.91-4.09-28.55-4.87-28.55-4.87-3.31-.16-6.15-.17-8.33-.13-.61.01-1.21.06-1.81.16-8.05,1.29-28.51,5.79-46.55,23.38-12.86,12.54-19.11,26.48-22.17,36.34-1.76,5.68-7.26,9.43-13.18,8.95-2.6-.21-5.23-.31-7.89-.31-19.03,0-36.79,5.45-51.81,14.87-4.14,2.6-9.44,2.7-13.57.08-6.81-4.32-14.89-6.83-23.56-6.83-2.33,0-4.61.18-6.84.53-5.23.82-10.33-1.85-12.97-6.45-14.51-25.24-41.74-42.24-72.95-42.24s-60.13,18.07-74.27,44.62c-1.88,3.54-5.27,5.97-9.21,6.69-11.23,2.06-21.04,8.19-27.83,16.81-3.72,4.72-10.34,6.09-15.68,3.34-16.82-8.67-35.9-13.57-56.12-13.57-16.9,0-33,3.42-47.64,9.6-5.63,2.38-12.18.54-15.61-4.52-20.76-30.57-55.81-50.66-95.55-50.66s-71.58,18.29-92.62,46.54c-4.32,5.79-12.68,6.91-18.23,2.29-7.97-6.61-18.2-10.58-29.36-10.58-.6,0-1.2.01-1.8.03-4.76.19-9.33-2.08-11.75-6.18-17.04-28.76-48.38-48.04-84.22-48.04-26.28,0-50.14,10.36-67.72,27.23-2.94,2.82-7.01,4.07-11.04,3.42-4.11-.66-8.33-1.01-12.63-1.01-19.79,0-37.88,7.28-51.74,19.31-4.13,3.59-10.07,4.02-14.82,1.31-6.71-3.83-14.48-6.01-22.75-6.01-15.49,0-29.18,7.65-37.52,19.38-3.51,4.94-10.03,6.58-15.58,4.12-14.3-6.35-30.13-9.88-46.78-9.88-15.59,0-30.47,3.09-44.04,8.7-5.52,2.28-11.88.57-15.38-4.27-14.35-19.79-37.65-32.66-63.97-32.66-2.33,0-4.64.1-6.92.3-5.23.46-10.23-2.43-12.52-7.16-13.94-28.73-43.38-48.53-77.46-48.53h-.13c-6.93.01-12.49,5.75-12.49,12.68v252.78h2803Z" fill="#f2da9e"/></svg>