<svg xmlns="http://www.w3.org/2000/svg" viewBox="0 0 2800 768" preserveAspectRatio="xMidYMax meet"><path d="M2803,772.44v-187.32c-9.72-4.32-20.47-6.73-31.79-6.73-7.76,0-15.26,1.13-22.34,3.24,0,0-12.36,3.82-18.11,7.1-13.47,8.63-24.13,21.27-30.29,36.24-10.32-4.67-21.78-7.27-33.84-7.27-36.17,0-66.89,23.36-77.89,55.82-10.16-10.58-24.44-17.17-40.27-17.17-4.19,0-8.27.47-12.2,1.34-12.59-38.56-48.85-66.41-91.61-66.41-29.84,0-56.51,13.56-74.18,34.86-7.06-1.93-14.5-2.96-22.17-2.96-16.61,0-32.09,4.82-45.12,13.13-6.74-2.89-14.16-4.49-21.95-4.49-3.33,0-6.58.29-9.75.85-14.86-29.18-45.19-49.17-80.19-49.17-37.76,0-70.08,23.27-83.41,56.25-5.31-1.2-10.83-1.84-16.5-1.84-18.09,0-34.66,6.47-47.54,17.22-15.08-18.39-37.97-30.12-63.61-30.12-31.64,0-59.1,17.87-72.85,44.06-5.97-2.18-12.41-3.37-19.13-3.37-5.84,0-11.46.9-16.75,2.56-11.4-21.67-34.13-36.44-60.31-36.44-2.79,0-5.53.17-8.23.49-7.26-43.5-45.07-76.65-90.63-76.65-35.26,0-65.88,19.86-81.29,49.01-3.46-.49-7-.75-10.6-.75-22.49,0-42.65,10-56.26,25.8-11.4-5.92-24.36-9.27-38.09-9.27-16.01,0-30.96,4.55-43.63,12.43-9.47-32.62-39.58-56.47-75.26-56.47-7.94,0-15.6,1.18-22.82,3.37,0,0-10.39,2.69-19.39,9.46-13.11,8.62-23.49,21.05-29.53,35.73-10.32-4.67-21.78-7.27-33.84-7.27-36.17,0-66.89,23.36-77.89,55.82-10.16-10.58-24.44-17.17-40.27-17.17-4.19,0-8.27.47-12.2,1.34-12.59-38.56-48.85-66.41-91.61-66.41-29.84,0-56.51,13.56-74.18,34.86-7.06-1.93-14.5-2.96-22.17-2.96-16.61,0-32.09,4.82-45.12,13.13-6.74-2.89-14.16-4.49-21.95-4.49-3.33,0-6.58.29-9.75.85-14.86-29.18-45.19-49.17-80.19-49.17-37.76,0-70.08,23.27-83.41,56.25-5.31-1.2-10.83-1.84-16.5-1.84-18.09,0-34.66,6.47-47.54,17.22-15.08-18.39-37.97-30.12-63.61-30.12-31.64,0-59.1,17.87-72.85,44.06-5.97-2.18-12.41-3.37-19.13-3.37-5.84,0-11.46.9-16.75,2.56-11.4-21.67-34.13-36.44-60.31-36.44-2.79,0-5.53.17-8.23.49-7.26-43.5-45.07-76.65-90.63-76.65-35.26,0-65.88,19.86-81.29,49.01-3.46-.49-7-.75-10.6-.75-22.49,0-42.65,10-56.26,25.8-11.4-5.92-24.36-9.27-38.09-9.27-16.01,0-30.96,4.55-43.63,12.43-9.47-32.62-39.58-56.47-75.26-56.47-15.54,0-30.03,4.52-42.21,12.33v183.72h2803Z" fill="#d7edf4"/></svg>