<?xml version="1.0" encoding="UTF-8"?>
<svg id="Layer_2" data-name="Layer 2" xmlns="http://www.w3.org/2000/svg" xmlns:xlink="http://www.w3.org/1999/xlink" viewBox="0 0 740 740">
  <defs>
    <style>
      .cls-1 {
        filter: url(#drop-shadow-1);
      }

      .cls-2 {
        fill: none;
        stroke: #17557f;
        stroke-miterlimit: 10;
        stroke-width: 2.2px;
      }

      .cls-3 {
        fill: url(#linear-gradient);
      }

      .cls-4 {
        fill: #fff;
      }

      .cls-5 {
        opacity: .9;
      }
    </style>
    <filter id="drop-shadow-1" x="9.07" y="138.35" width="734" height="458" filterUnits="userSpaceOnUse">
      <feOffset dx="5.12" dy="7.16"/>
      <feGaussianBlur result="blur" stdDeviation="8.18"/>
      <feFlood flood-color="#17557f" flood-opacity=".33"/>
      <feComposite in2="blur" operator="in"/>
      <feComposite in="SourceGraphic"/>
    </filter>
    <linearGradient id="linear-gradient" x1="369.59" y1="417.8" x2="369.59" y2="290.74" gradientUnits="userSpaceOnUse">
      <stop offset=".2" stop-color="#ffd47f"/>
      <stop offset=".36" stop-color="#ddccc1"/>
      <stop offset=".48" stop-color="#c7c6ee"/>
      <stop offset=".54" stop-color="#bfc5ff"/>
      <stop offset=".64" stop-color="#a5bfff"/>
      <stop offset=".88" stop-color="#6bb4ff"/>
      <stop offset="1" stop-color="#55b0ff"/>
    </linearGradient>
  </defs>
  <g class="cls-1">
    <path class="cls-4" d="M665.09,298.73v-.08h-15.25c-10.52-14.08-27.31-23.2-46.24-23.2-1.91,0-3.79.1-5.65.29-.94-37.66-31.7-67.91-69.58-67.91-12.04,0-23.36,3.05-33.24,8.43-15.63-35.14-50.82-59.66-91.77-59.66s-73.87,22.95-90.2,56.28c-6.49-1.93-13.34-3-20.46-3-33.27,0-61.17,22.69-69.28,53.42-.91-.05-1.81-.14-2.74-.14-10.78,0-20.68,3.66-28.62,9.74-8.63-10.91-21.96-17.94-36.96-17.94-24.87,0-45.23,19.27-46.99,43.69h-12.51v.08c-.56-.01-1.1-.08-1.65-.08-35.98,0-65.15,29.17-65.15,65.15s29.17,65.15,65.15,65.15c2.16,0,4.28-.12,6.38-.32,1.07,42.54,35.81,76.72,78.61,76.72,13.6,0,26.39-3.45,37.55-9.52,17.66,39.7,57.42,67.39,103.67,67.39s83.45-25.93,101.9-63.58c7.33,2.18,15.07,3.39,23.11,3.39,37.59,0,69.11-25.63,78.26-60.35,1.03.06,2.05.16,3.1.16,12.17,0,23.36-4.13,32.33-11.01,9.75,12.33,24.81,20.27,41.75,20.27,29.41,0,53.24-23.84,53.24-53.24,0-1.11-.1-2.2-.17-3.29,3.15.64,6.42.98,9.76.98,27.03,0,48.95-21.91,48.95-48.95s-21.03-47.98-47.29-48.86Z"/>
  </g>
  <g>
    <g>
      <path d="M229.06,416.79c-39.98,0-47.03-22.58-47.03-62.55,0-49.38,17.87-63.5,60.2-63.5,35.27,0,59.97,9.41,59.97,49.38,0,14.11-5.17,23.52-19.28,23.52h-72.43c0,18.81,3.29,31.98,26.81,31.98h60.91v21.16h-69.14ZM267.62,342.48c5.41,0,6.11-3.76,6.11-7.29,0-16.46-15.05-23.28-31.51-23.28-23.52,0-31.75,9.41-31.75,30.57h57.15Z"/>
      <path d="M362.37,393.62c.34,1.18.84,2.69,1.68,2.69,1.18,0,1.34-1.34,1.68-2.52l16.29-58.77c2.35-8.23,9.57-8.23,12.93-8.23s10.58,0,12.93,8.23l16.45,58.77c.34,1.18.84,2.52,1.68,2.52s1.34-1.34,1.68-2.69l16.96-65.65h18.81l-21.16,77.74c-2.35,8.56-6.88,12.09-15.28,12.09s-13.43-3.53-15.28-9.91l-15.45-55.75c-.17-.67-.5-2.85-1.34-2.85s-1.18,2.18-1.34,2.85l-15.45,55.75c-1.85,6.38-6.88,9.91-15.28,9.91s-12.93-3.53-15.28-12.09l-21.16-77.74h18.81l17.13,65.65Z"/>
      <path d="M507.29,393.78c.5,1.34,1.34,3.53,2.35,3.53s1.85-2.18,2.35-3.53l24.85-65.99h20.32l-33.92,82.11c-3.19,7.89-8.56,7.89-13.6,7.89s-10.41,0-13.77-7.89l-33.92-82.11h20.32l25.02,65.99Z"/>
    </g>
    <g class="cls-5">
      <path class="cls-3" d="M229.06,416.79c-39.98,0-47.03-22.58-47.03-62.55,0-49.38,17.87-63.5,60.2-63.5,35.27,0,59.97,9.41,59.97,49.38,0,14.11-5.17,23.52-19.28,23.52h-72.43c0,18.81,3.29,31.98,26.81,31.98h60.91v21.16h-69.14ZM267.62,342.48c5.41,0,6.11-3.76,6.11-7.29,0-16.46-15.05-23.28-31.51-23.28-23.52,0-31.75,9.41-31.75,30.57h57.15Z"/>
      <path class="cls-3" d="M362.37,393.62c.34,1.18.84,2.69,1.68,2.69,1.18,0,1.34-1.34,1.68-2.52l16.29-58.77c2.35-8.23,9.57-8.23,12.93-8.23s10.58,0,12.93,8.23l16.45,58.77c.34,1.18.84,2.52,1.68,2.52s1.34-1.34,1.68-2.69l16.96-65.65h18.81l-21.16,77.74c-2.35,8.56-6.88,12.09-15.28,12.09s-13.43-3.53-15.28-9.91l-15.45-55.75c-.17-.67-.5-2.85-1.34-2.85s-1.18,2.18-1.34,2.85l-15.45,55.75c-1.85,6.38-6.88,9.91-15.28,9.91s-12.93-3.53-15.28-12.09l-21.16-77.74h18.81l17.13,65.65Z"/>
      <path class="cls-3" d="M507.29,393.78c.5,1.34,1.34,3.53,2.35,3.53s1.85-2.18,2.35-3.53l24.85-65.99h20.32l-33.92,82.11c-3.19,7.89-8.56,7.89-13.6,7.89s-10.41,0-13.77-7.89l-33.92-82.11h20.32l25.02,65.99Z"/>
    </g>
    <g>
      <path class="cls-2" d="M229.06,416.79c-39.98,0-47.03-22.58-47.03-62.55,0-49.38,17.87-63.5,60.2-63.5,35.27,0,59.97,9.41,59.97,49.38,0,14.11-5.17,23.52-19.28,23.52h-72.43c0,18.81,3.29,31.98,26.81,31.98h60.91v21.16h-69.14ZM267.62,342.48c5.41,0,6.11-3.76,6.11-7.29,0-16.46-15.05-23.28-31.51-23.28-23.52,0-31.75,9.41-31.75,30.57h57.15Z"/>
      <path class="cls-2" d="M362.37,393.62c.34,1.18.84,2.69,1.68,2.69,1.18,0,1.34-1.34,1.68-2.52l16.29-58.77c2.35-8.23,9.57-8.23,12.93-8.23s10.58,0,12.93,8.23l16.45,58.77c.34,1.18.84,2.52,1.68,2.52s1.34-1.34,1.68-2.69l16.96-65.65h18.81l-21.16,77.74c-2.35,8.56-6.88,12.09-15.28,12.09s-13.43-3.53-15.28-9.91l-15.45-55.75c-.17-.67-.5-2.85-1.34-2.85s-1.18,2.18-1.34,2.85l-15.45,55.75c-1.85,6.38-6.88,9.91-15.28,9.91s-12.93-3.53-15.28-12.09l-21.16-77.74h18.81l17.13,65.65Z"/>
      <path class="cls-2" d="M507.29,393.78c.5,1.34,1.34,3.53,2.35,3.53s1.85-2.18,2.35-3.53l24.85-65.99h20.32l-33.92,82.11c-3.19,7.89-8.56,7.89-13.6,7.89s-10.41,0-13.77-7.89l-33.92-82.11h20.32l25.02,65.99Z"/>
    </g>
  </g>
</svg>