<?xml version="1.0" encoding="UTF-8"?>
<svg id="Layer_2" data-name="Layer 2" xmlns="http://www.w3.org/2000/svg" xmlns:xlink="http://www.w3.org/1999/xlink" viewBox="0 0 1324 492">
  <defs>
    <style>
      .cls-1 {
        filter: url(#drop-shadow-3);
      }

      .cls-2 {
        fill: none;
        stroke: #17557f;
        stroke-miterlimit: 10;
        stroke-width: 1.65px;
      }

      .cls-3 {
        fill: url(#linear-gradient);
      }

      .cls-4 {
        fill: #17557f;
      }

      .cls-5 {
        fill: #fff;
      }

      .cls-6 {
        opacity: .9;
      }
    </style>
    <filter id="drop-shadow-3" x="85.45" y="65.45" width="1213" height="398" filterUnits="userSpaceOnUse">
      <feOffset dx="5.12" dy="7.16"/>
      <feGaussianBlur result="blur" stdDeviation="8.18"/>
      <feFlood flood-color="#17557f" flood-opacity=".33"/>
      <feComposite in2="blur" operator="in"/>
      <feComposite in="SourceGraphic"/>
    </filter>
    <linearGradient id="linear-gradient" x1="678.54" y1="268.43" x2="678.54" y2="140.36" gradientUnits="userSpaceOnUse">
      <stop offset=".2" stop-color="#ffd47f"/>
      <stop offset=".36" stop-color="#ddccc1"/>
      <stop offset=".48" stop-color="#c7c6ee"/>
      <stop offset=".54" stop-color="#bfc5ff"/>
      <stop offset=".64" stop-color="#a5bfff"/>
      <stop offset=".88" stop-color="#6bb4ff"/>
      <stop offset="1" stop-color="#55b0ff"/>
    </linearGradient>
  </defs>
  <g class="cls-1">
    <path class="cls-5" d="M1185.25,83c-.71,0-1.39.08-2.09.1v-.1H200.92v.11c-.79-.02-1.56-.11-2.36-.11-51.4,0-93.07,38.26-93.07,85.45s41.67,85.45,93.07,85.45c3.08,0,6.12-.15,9.12-.42,1.52,55.79,51.16,100.62,112.3,100.62,19.42,0,37.7-4.52,53.64-12.48,25.23,52.07,82.02,88.39,148.1,88.39s119.21-34.01,145.58-83.39c10.47,2.86,21.53,4.45,33.01,4.45,28.81,0,55.11-9.68,75.33-25.68,24.96,38.77,70.94,64.79,123.55,64.79,58.49,0,108.77-32.15,131.1-78.24,14.11,7.05,30.29,11.05,47.48,11.05,54.12,0,98.06-39.68,99.41-89.07,2.66.24,5.35.37,8.07.37,45.5,0,82.39-33.87,82.39-75.64s-36.89-75.64-82.39-75.64ZM387.92,168.74c-.35-.24-.7-.49-1.06-.73h1.18c-.04.24-.08.48-.12.73Z"/>
  </g>
  <g>
    <g>
      <path d="M251.36,237.59c-30.84,0-36.28-17.41-36.28-48.25,0-38.09,13.79-48.98,46.44-48.98,27.21,0,46.26,7.26,46.26,38.09,0,10.88-3.99,18.14-14.88,18.14h-55.87c0,14.51,2.54,24.67,20.68,24.67h46.98v16.33h-53.33ZM281.11,180.27c4.17,0,4.72-2.9,4.72-5.62,0-12.7-11.61-17.96-24.31-17.96-18.14,0-24.49,7.26-24.49,23.58h44.08Z"/>
      <path d="M313.04,157.78c0-10.88,5.44-16.33,16.33-16.33h83.26c21.77,0,37.37,7.44,37.37,32.83v63.31h-21.22v-57.68c0-14.51-5.62-22.13-20.13-22.13h-16.51v79.81h-21.22v-79.81h-31.2c-3.63,0-5.44,1.81-5.44,5.44v74.37h-21.22v-79.81Z"/>
      <path d="M505.5,141.45c30.84,0,39.36,18.87,39.36,47.89s-8.53,48.25-39.36,48.25h-28.66v30.84h-21.22v-110.65c0-10.88,5.44-16.33,16.33-16.33h33.56ZM476.83,221.27h23.4c20.5,0,22.67-13.79,22.67-31.93s-2.18-31.56-22.67-31.56h-17.96c-3.45,0-5.44,1.63-5.44,4.72v58.77Z"/>
      <path d="M650.07,189.34c0,38.46-16.69,49.34-51.15,49.34s-51.15-10.88-51.15-49.34,16.69-48.98,51.15-48.98,51.15,10.88,51.15,48.98ZM598.91,222.36c21.77,0,29.2-9.43,29.2-33.01s-7.44-32.65-29.2-32.65-29.2,9.07-29.2,32.65,7.44,33.01,29.2,33.01Z"/>
      <path d="M683.99,212.56c.36,1.27.91,2.9,1.81,2.9,1.27,0,1.45-1.45,1.81-2.72l17.6-63.49c2.54-8.89,10.34-8.89,13.97-8.89s11.43,0,13.97,8.89l17.78,63.49c.36,1.27.91,2.72,1.81,2.72s1.45-1.45,1.81-2.9l18.32-70.93h20.32l-22.86,83.99c-2.54,9.25-7.44,13.06-16.51,13.06s-14.51-3.81-16.51-10.7l-16.69-60.22c-.18-.73-.54-3.08-1.45-3.08s-1.27,2.36-1.45,3.08l-16.69,60.22c-2,6.89-7.44,10.7-16.51,10.7s-13.97-3.81-16.51-13.06l-22.86-83.99h20.32l18.5,70.93Z"/>
      <path d="M824.93,237.59c-30.84,0-36.28-17.41-36.28-48.25,0-38.09,13.79-48.98,46.44-48.98,27.21,0,46.26,7.26,46.26,38.09,0,10.88-3.99,18.14-14.87,18.14h-55.87c0,14.51,2.54,24.67,20.68,24.67h46.98v16.33h-53.33ZM854.68,180.27c4.17,0,4.72-2.9,4.72-5.62,0-12.7-11.61-17.96-24.31-17.96-18.14,0-24.49,7.26-24.49,23.58h44.08Z"/>
      <path d="M886.3,177.73c0-25.76,13.06-36.28,38.82-36.28h14.33v16.33h-8.89c-17.05,0-23.04,8.53-23.04,25.58v54.24h-21.22v-59.86Z"/>
      <path d="M988.61,219.34c.26.93.66,2.12,1.32,2.12.93,0,1.06-1.06,1.32-1.98l12.83-46.28c1.85-6.48,7.54-6.48,10.18-6.48s8.33,0,10.18,6.48l12.96,46.28c.26.93.66,1.98,1.32,1.98s1.06-1.06,1.32-2.12l13.36-51.7h14.81l-16.66,61.22c-1.85,6.74-5.42,9.52-12.03,9.52s-10.58-2.78-12.03-7.8l-12.17-43.9c-.13-.53-.4-2.25-1.06-2.25s-.93,1.72-1.06,2.25l-12.17,43.9c-1.45,5.03-5.42,7.8-12.03,7.8s-10.18-2.78-12.03-9.52l-16.66-61.22h14.81l13.49,51.7Z"/>
      <path d="M1102.73,219.48c.4,1.06,1.06,2.78,1.85,2.78s1.45-1.72,1.85-2.78l19.57-51.97h16l-26.71,64.66c-2.51,6.21-6.74,6.21-10.71,6.21s-8.2,0-10.84-6.21l-26.71-64.66h16l19.7,51.97Z"/>
    </g>
    <g class="cls-6">
      <path class="cls-3" d="M251.36,237.59c-30.84,0-36.28-17.41-36.28-48.25,0-38.09,13.79-48.98,46.44-48.98,27.21,0,46.26,7.26,46.26,38.09,0,10.88-3.99,18.14-14.88,18.14h-55.87c0,14.51,2.54,24.67,20.68,24.67h46.98v16.33h-53.33ZM281.11,180.27c4.17,0,4.72-2.9,4.72-5.62,0-12.7-11.61-17.96-24.31-17.96-18.14,0-24.49,7.26-24.49,23.58h44.08Z"/>
      <path class="cls-3" d="M313.04,157.78c0-10.88,5.44-16.33,16.33-16.33h83.26c21.77,0,37.37,7.44,37.37,32.83v63.31h-21.22v-57.68c0-14.51-5.62-22.13-20.13-22.13h-16.51v79.81h-21.22v-79.81h-31.2c-3.63,0-5.44,1.81-5.44,5.44v74.37h-21.22v-79.81Z"/>
      <path class="cls-3" d="M505.5,141.45c30.84,0,39.36,18.87,39.36,47.89s-8.53,48.25-39.36,48.25h-28.66v30.84h-21.22v-110.65c0-10.88,5.44-16.33,16.33-16.33h33.56ZM476.83,221.27h23.4c20.5,0,22.67-13.79,22.67-31.93s-2.18-31.56-22.67-31.56h-17.96c-3.45,0-5.44,1.63-5.44,4.72v58.77Z"/>
      <path class="cls-3" d="M650.07,189.34c0,38.46-16.69,49.34-51.15,49.34s-51.15-10.88-51.15-49.34,16.69-48.98,51.15-48.98,51.15,10.88,51.15,48.98ZM598.91,222.36c21.77,0,29.2-9.43,29.2-33.01s-7.44-32.65-29.2-32.65-29.2,9.07-29.2,32.65,7.44,33.01,29.2,33.01Z"/>
      <path class="cls-3" d="M683.99,212.56c.36,1.27.91,2.9,1.81,2.9,1.27,0,1.45-1.45,1.81-2.72l17.6-63.49c2.54-8.89,10.34-8.89,13.97-8.89s11.43,0,13.97,8.89l17.78,63.49c.36,1.27.91,2.72,1.81,2.72s1.45-1.45,1.81-2.9l18.32-70.93h20.32l-22.86,83.99c-2.54,9.25-7.44,13.06-16.51,13.06s-14.51-3.81-16.51-10.7l-16.69-60.22c-.18-.73-.54-3.08-1.45-3.08s-1.27,2.36-1.45,3.08l-16.69,60.22c-2,6.89-7.44,10.7-16.51,10.7s-13.97-3.81-16.51-13.06l-22.86-83.99h20.32l18.5,70.93Z"/>
      <path class="cls-3" d="M824.93,237.59c-30.84,0-36.28-17.41-36.28-48.25,0-38.09,13.79-48.98,46.44-48.98,27.21,0,46.26,7.26,46.26,38.09,0,10.88-3.99,18.14-14.87,18.14h-55.87c0,14.51,2.54,24.67,20.68,24.67h46.98v16.33h-53.33ZM854.68,180.27c4.17,0,4.72-2.9,4.72-5.62,0-12.7-11.61-17.96-24.31-17.96-18.14,0-24.49,7.26-24.49,23.58h44.08Z"/>
      <path class="cls-3" d="M886.3,177.73c0-25.76,13.06-36.28,38.82-36.28h14.33v16.33h-8.89c-17.05,0-23.04,8.53-23.04,25.58v54.24h-21.22v-59.86Z"/>
      <path class="cls-3" d="M988.61,219.34c.26.93.66,2.12,1.32,2.12.93,0,1.06-1.06,1.32-1.98l12.83-46.28c1.85-6.48,7.54-6.48,10.18-6.48s8.33,0,10.18,6.48l12.96,46.28c.26.93.66,1.98,1.32,1.98s1.06-1.06,1.32-2.12l13.36-51.7h14.81l-16.66,61.22c-1.85,6.74-5.42,9.52-12.03,9.52s-10.58-2.78-12.03-7.8l-12.17-43.9c-.13-.53-.4-2.25-1.06-2.25s-.93,1.72-1.06,2.25l-12.17,43.9c-1.45,5.03-5.42,7.8-12.03,7.8s-10.18-2.78-12.03-9.52l-16.66-61.22h14.81l13.49,51.7Z"/>
      <path class="cls-3" d="M1102.73,219.48c.4,1.06,1.06,2.78,1.85,2.78s1.45-1.72,1.85-2.78l19.57-51.97h16l-26.71,64.66c-2.51,6.21-6.74,6.21-10.71,6.21s-8.2,0-10.84-6.21l-26.71-64.66h16l19.7,51.97Z"/>
    </g>
    <g>
      <path class="cls-2" d="M251.36,237.59c-30.84,0-36.28-17.41-36.28-48.25,0-38.09,13.79-48.98,46.44-48.98,27.21,0,46.26,7.26,46.26,38.09,0,10.88-3.99,18.14-14.88,18.14h-55.87c0,14.51,2.54,24.67,20.68,24.67h46.98v16.33h-53.33ZM281.11,180.27c4.17,0,4.72-2.9,4.72-5.62,0-12.7-11.61-17.96-24.31-17.96-18.14,0-24.49,7.26-24.49,23.58h44.08Z"/>
      <path class="cls-2" d="M313.04,157.78c0-10.88,5.44-16.33,16.33-16.33h83.26c21.77,0,37.37,7.44,37.37,32.83v63.31h-21.22v-57.68c0-14.51-5.62-22.13-20.13-22.13h-16.51v79.81h-21.22v-79.81h-31.2c-3.63,0-5.44,1.81-5.44,5.44v74.37h-21.22v-79.81Z"/>
      <path class="cls-2" d="M505.5,141.45c30.84,0,39.36,18.87,39.36,47.89s-8.53,48.25-39.36,48.25h-28.66v30.84h-21.22v-110.65c0-10.88,5.44-16.33,16.33-16.33h33.56ZM476.83,221.27h23.4c20.5,0,22.67-13.79,22.67-31.93s-2.18-31.56-22.67-31.56h-17.96c-3.45,0-5.44,1.63-5.44,4.72v58.77Z"/>
      <path class="cls-2" d="M650.07,189.34c0,38.46-16.69,49.34-51.15,49.34s-51.15-10.88-51.15-49.34,16.69-48.98,51.15-48.98,51.15,10.88,51.15,48.98ZM598.91,222.36c21.77,0,29.2-9.43,29.2-33.01s-7.44-32.65-29.2-32.65-29.2,9.07-29.2,32.65,7.44,33.01,29.2,33.01Z"/>
      <path class="cls-2" d="M683.99,212.56c.36,1.27.91,2.9,1.81,2.9,1.27,0,1.45-1.45,1.81-2.72l17.6-63.49c2.54-8.89,10.34-8.89,13.97-8.89s11.43,0,13.97,8.89l17.78,63.49c.36,1.27.91,2.72,1.81,2.72s1.45-1.45,1.81-2.9l18.32-70.93h20.32l-22.86,83.99c-2.54,9.25-7.44,13.06-16.51,13.06s-14.51-3.81-16.51-10.7l-16.69-60.22c-.18-.73-.54-3.08-1.45-3.08s-1.27,2.36-1.45,3.08l-16.69,60.22c-2,6.89-7.44,10.7-16.51,10.7s-13.97-3.81-16.51-13.06l-22.86-83.99h20.32l18.5,70.93Z"/>
      <path class="cls-2" d="M824.93,237.59c-30.84,0-36.28-17.41-36.28-48.25,0-38.09,13.79-48.98,46.44-48.98,27.21,0,46.26,7.26,46.26,38.09,0,10.88-3.99,18.14-14.87,18.14h-55.87c0,14.51,2.54,24.67,20.68,24.67h46.98v16.33h-53.33ZM854.68,180.27c4.17,0,4.72-2.9,4.72-5.62,0-12.7-11.61-17.96-24.31-17.96-18.14,0-24.49,7.26-24.49,23.58h44.08Z"/>
      <path class="cls-2" d="M886.3,177.73c0-25.76,13.06-36.28,38.82-36.28h14.33v16.33h-8.89c-17.05,0-23.04,8.53-23.04,25.58v54.24h-21.22v-59.86Z"/>
      <path class="cls-2" d="M988.61,219.34c.26.93.66,2.12,1.32,2.12.93,0,1.06-1.06,1.32-1.98l12.83-46.28c1.85-6.48,7.54-6.48,10.18-6.48s8.33,0,10.18,6.48l12.96,46.28c.26.93.66,1.98,1.32,1.98s1.06-1.06,1.32-2.12l13.36-51.7h14.81l-16.66,61.22c-1.85,6.74-5.42,9.52-12.03,9.52s-10.58-2.78-12.03-7.8l-12.17-43.9c-.13-.53-.4-2.25-1.06-2.25s-.93,1.72-1.06,2.25l-12.17,43.9c-1.45,5.03-5.42,7.8-12.03,7.8s-10.18-2.78-12.03-9.52l-16.66-61.22h14.81l13.49,51.7Z"/>
      <path class="cls-2" d="M1102.73,219.48c.4,1.06,1.06,2.78,1.85,2.78s1.45-1.72,1.85-2.78l19.57-51.97h16l-26.71,64.66c-2.51,6.21-6.74,6.21-10.71,6.21s-8.2,0-10.84-6.21l-26.71-64.66h16l19.7,51.97Z"/>
    </g>
  </g>
  <g>
    <path class="cls-4" d="M520.16,282.93c-9.25,0-11.51-4.88-11.51-13.61,0-8.22,2.26-13.62,11.51-13.62h9.15v2.42h-9.15c-7.19,0-8.73,4.01-8.73,11.2,0,7.71,1.54,11.2,8.73,11.2h9.76v2.42h-9.76Z"/>
    <path class="cls-4" d="M557.86,269.26c0,9.76-3.7,13.97-13.46,13.97s-13.46-4.21-13.46-13.97,3.7-13.87,13.46-13.87,13.46,4.11,13.46,13.87ZM544.4,280.82c7.71,0,10.69-2.83,10.69-11.56s-2.98-11.46-10.69-11.46-10.69,2.72-10.69,11.46,2.98,11.56,10.69,11.56Z"/>
    <path class="cls-4" d="M561.86,260.02c0-2.62.82-4.32,3.7-4.32h25.23c5.65,0,7.86,3.03,7.86,8.37v18.86h-2.67v-18.86c0-3.29-1.08-5.96-5.19-5.96h-9.2v24.81h-2.67v-24.81h-12.74c-1.03,0-1.64.21-1.64,1.95v22.86h-2.67v-22.91Z"/>
    <path class="cls-4" d="M603.64,260.02c0-2.62.82-4.32,3.7-4.32h25.23c5.65,0,7.86,3.03,7.86,8.37v18.86h-2.67v-18.86c0-3.29-1.08-5.96-5.19-5.96h-9.2v24.81h-2.67v-24.81h-12.74c-1.03,0-1.64.21-1.64,1.95v22.86h-2.67v-22.91Z"/>
    <path class="cls-4" d="M667.09,278.61c0,2.62-.82,4.32-3.7,4.32h-10.22c-5.65,0-7.86-3.03-7.86-8.37v-18.86h2.67v18.86c0,3.29,1.08,5.96,5.19,5.96h9.61c1.03,0,1.64-.21,1.64-1.95v-22.86h2.67v22.91Z"/>
    <path class="cls-4" d="M672.05,260.02c0-2.62.82-4.32,3.7-4.32h10.02c5.65,0,7.86,3.03,7.86,8.37v18.86h-2.67v-18.86c0-3.29-1.08-5.96-5.19-5.96h-9.4c-1.03,0-1.64.21-1.64,1.95v22.86h-2.67v-22.91Z"/>
    <path class="cls-4" d="M698.46,250.97v-4.01h2.88v4.01h-2.88ZM698.56,255.7h2.67v27.23h-2.67v-27.23Z"/>
    <path class="cls-4" d="M715.53,282.93c-7.4,0-7.4-4.32-7.4-8.63v-16.18h-4.26v-2.42h4.26v-8.73h2.67v8.73h7.3v2.42h-7.3v16.95c0,4.26,1.13,5.45,5.34,5.45h1.95v2.42h-2.57Z"/>
    <path class="cls-4" d="M729.59,291.71h-2.88l4.11-8.94-11.51-27.08h2.88l10.07,23.89,10.69-23.89h2.88l-16.24,36.01Z"/>
    <path class="cls-4" d="M768.74,282.93c-7.5,0-9.4-5.65-9.4-13.41,0-9.2,2.47-14.13,11.66-14.13,6.73,0,11.71,2.67,11.71,10.38,0,3.13-.82,4.47-3.9,4.47h-16.7c0,4.78.82,10.28,6.63,10.28h13.36v2.42h-13.36ZM778.81,267.83c.87,0,1.13-.72,1.13-1.23v-.36c0-6.68-3.29-8.43-8.89-8.43-6.06,0-8.94,2.21-8.94,10.02h16.7Z"/>
    <path class="cls-4" d="M797.34,282.93c-9.25,0-11.51-4.88-11.51-13.61,0-8.22,2.26-13.62,11.51-13.62h9.15v2.42h-9.15c-7.19,0-8.73,4.01-8.73,11.2,0,7.71,1.54,11.2,8.73,11.2h9.76v2.42h-9.76Z"/>
    <path class="cls-4" d="M835.04,269.26c0,9.76-3.7,13.97-13.46,13.97s-13.46-4.21-13.46-13.97,3.7-13.87,13.46-13.87,13.46,4.11,13.46,13.87ZM821.58,280.82c7.71,0,10.69-2.83,10.69-11.56s-2.98-11.46-10.69-11.46-10.69,2.72-10.69,11.46,2.98,11.56,10.69,11.56Z"/>
    <path class="cls-4" d="M851.64,260.02c0-2.62.82-4.32,3.7-4.32h25.23c5.65,0,7.86,3.03,7.86,8.37v18.86h-2.67v-18.86c0-3.29-1.08-5.96-5.19-5.96h-9.2v24.81h-2.67v-24.81h-12.74c-1.03,0-1.64.21-1.64,1.95v22.86h-2.67v-22.91Z"/>
    <path class="cls-4" d="M919.31,269.26c0,9.76-3.7,13.97-13.46,13.97s-13.46-4.21-13.46-13.97,3.7-13.87,13.46-13.87,13.46,4.11,13.46,13.87ZM905.85,280.82c7.71,0,10.69-2.83,10.69-11.56s-2.98-11.46-10.69-11.46-10.69,2.72-10.69,11.46,2.98,11.56,10.69,11.56Z"/>
    <path class="cls-4" d="M923.31,260.02c0-2.62.82-4.32,3.7-4.32h10.02c5.65,0,7.86,3.03,7.86,8.37v18.86h-2.67v-18.86c0-3.29-1.08-5.96-5.19-5.96h-9.4c-1.03,0-1.64.21-1.64,1.95v22.86h-2.67v-22.91Z"/>
    <path class="cls-4" d="M949.72,250.97v-4.01h2.88v4.01h-2.88ZM949.82,255.7h2.67v27.23h-2.67v-27.23Z"/>
    <path class="cls-4" d="M966.79,282.93c-7.4,0-7.4-4.32-7.4-8.63v-16.18h-4.26v-2.42h4.26v-8.73h2.67v8.73h7.3v2.42h-7.3v16.95c0,4.26,1.13,5.45,5.34,5.45h1.95v2.42h-2.57Z"/>
    <path class="cls-4" d="M996.97,269.26c0,9.76-3.7,13.97-13.46,13.97s-13.46-4.21-13.46-13.97,3.7-13.87,13.46-13.87,13.46,4.11,13.46,13.87ZM983.51,280.82c7.71,0,10.69-2.83,10.69-11.56s-2.98-11.46-10.69-11.46-10.69,2.72-10.69,11.46,2.98,11.56,10.69,11.56Z"/>
    <path class="cls-4" d="M1000.89,265.05c0-6.17,2.93-9.35,9.09-9.35h1.85v2.42h-1.85c-4.62,0-6.42,2.41-6.42,7.55v17.26h-2.67v-17.88Z"/>
    <path class="cls-4" d="M1014.4,250.97v-4.01h2.88v4.01h-2.88ZM1014.5,255.7h2.67v27.23h-2.67v-27.23Z"/>
    <path class="cls-4" d="M1022.09,260.02c0-2.62.82-4.32,3.7-4.32h10.02c5.65,0,7.86,3.03,7.86,8.37v18.86h-2.67v-18.86c0-3.29-1.08-5.96-5.19-5.96h-9.4c-1.03,0-1.64.21-1.64,1.95v22.86h-2.67v-22.91Z"/>
    <path class="cls-4" d="M1059.25,282.93c-9.25,0-11.51-4.37-11.51-13.61,0-8.73,2.26-13.62,11.51-13.62h5.86c3.6,0,5.75,1.13,5.75,4.78v19.32c0,7.35-2,11.87-10.84,11.87h-10.38v-2.42h10.38c4.78,0,7.66-1.44,8.07-6.32h-8.84ZM1068.19,260.32c0-1.39-.62-2.21-2.41-2.21h-6.52c-7.19,0-8.73,3.49-8.73,11.2,0,8.22,1.54,11.2,8.73,11.2h8.94v-20.19Z"/>
  </g>
</svg>